<svg id="Layer_1" data-name="Layer 1" xmlns="http://www.w3.org/2000/svg" width="0.2in" height="0.2in" viewBox="0 0 16 16"><title>Artboard 3</title><circle cx="8" cy="8" r="8" fill="#c7b299"/><polygon points="7.9 2.1 4.6 6.6 11.2 6.6 7.9 2.1" fill="#009245"/><rect x="7" y="12" width="1.4" height="1.83" fill="#534741"/><polygon points="7.9 2.6 3.8 9.7 12 9.7 7.9 2.6" fill="#009245"/><polygon points="7.9 4.1 3.1 12.4 12.7 12.4 7.9 4.1" fill="#009245"/><circle cx="8.1" cy="7.6" r="0.7" fill="#c1272d"/><circle cx="8" cy="11.3" r="0.7" fill="#c1272d"/><circle cx="6" cy="9.7" r="0.7" fill="#c1272d"/><circle cx="8.8" cy="4.5" r="0.7" fill="#c1272d"/><circle cx="6.7" cy="5.5" r="0.7" fill="#c1272d"/><circle cx="9.5" cy="9.7" r="0.7" fill="#c1272d"/><polygon points="7.9 0.8 8.3 1.7 9.3 1.8 8.6 2.5 8.8 3.4 7.9 3 7.1 3.4 7.2 2.5 6.5 1.8 7.5 1.7 7.9 0.8" fill="#fcee21"/></svg>